<?xml version="1.0" standalone="no"?>
<!DOCTYPE svg PUBLIC "-//W3C//DTD SVG 20010904//EN"
 "http://www.w3.org/TR/2001/REC-SVG-20010904/DTD/svg10.dtd">
<svg version="1.0" xmlns="http://www.w3.org/2000/svg"
 width="512.000000pt" height="512.000000pt" viewBox="0 0 512.000000 512.000000"
 preserveAspectRatio="xMidYMid meet">

<g transform="translate(0.000000,512.000000) scale(0.100000,-0.100000)"
fill="#000000" stroke="none">
<path d="M2450 5104 c-67 -18 -130 -54 -188 -108 l-45 -41 -196 -5 c-183 -5
-198 -6 -234 -28 -20 -13 -42 -32 -47 -43 -10 -18 -29 -19 -525 -19 -503 0
-516 0 -572 -22 -79 -29 -162 -112 -191 -191 l-22 -58 2 -2172 3 -2172 23 -46
c37 -75 87 -125 160 -161 l67 -33 1875 0 1875 0 67 33 c73 36 123 86 160 161
l23 46 3 2172 2 2172 -22 58 c-29 79 -112 162 -191 191 -56 22 -69 22 -571 22
l-514 0 -15 24 c-9 13 -36 33 -60 45 -39 19 -61 21 -216 21 -188 0 -192 1
-258 61 -103 94 -255 130 -393 93z m224 -186 c23 -11 60 -38 82 -58 79 -72 88
-75 297 -78 l187 -4 0 -169 0 -169 -680 0 -680 0 0 169 0 169 188 4 c208 3
217 6 296 78 98 89 207 110 310 58z m-966 -310 l-3 -83 -416 -5 -416 -5 -35
-27 c-74 -57 -68 127 -68 -2059 l0 -1962 25 -43 c16 -28 39 -49 68 -63 l44
-21 1665 2 1664 3 37 25 c20 13 45 41 56 61 21 37 21 38 21 1999 0 2185 6
2001 -68 2058 l-35 27 -416 5 -416 5 -3 83 -3 83 505 -3 c492 -3 505 -4 532
-24 15 -11 37 -33 48 -48 l21 -27 2 -2147 3 -2147 -23 -39 c-14 -25 -39 -48
-66 -63 l-44 -23 -1827 0 -1827 0 -44 23 c-27 15 -52 38 -66 63 l-23 39 0
2132 c0 1486 3 2140 11 2160 14 37 47 73 84 89 24 10 134 13 523 14 l493 0 -3
-82z m45 -284 c43 -55 27 -54 807 -54 780 0 764 -1 807 54 l21 26 396 0 396 0
0 -1920 0 -1920 -1620 0 -1620 0 0 1920 0 1920 396 0 396 0 21 -26z"/>
<path d="M2419 4751 c-37 -38 -39 -82 -4 -116 23 -24 31 -25 135 -25 146 0
180 16 180 87 0 14 -13 37 -29 54 -29 29 -31 29 -141 29 -110 0 -112 0 -141
-29z"/>
<path d="M1390 4086 c-26 -6 -62 -22 -82 -34 -43 -27 -95 -100 -105 -151 -5
-20 -8 -169 -8 -332 l0 -295 30 -60 c33 -64 95 -115 163 -134 21 -6 158 -10
318 -10 334 0 360 5 434 80 63 62 80 118 80 257 0 108 -13 154 -45 167 -31 12
-73 6 -96 -13 -22 -18 -24 -28 -29 -145 -7 -183 17 -170 -323 -174 -149 -2
-282 0 -295 3 -12 3 -31 14 -42 25 -19 19 -20 35 -20 313 l0 294 26 24 c25 23
30 24 217 27 106 1 202 5 215 7 13 3 29 20 39 40 22 45 4 92 -43 111 -43 18
-368 18 -434 0z"/>
<path d="M1940 3855 c-232 -231 -237 -235 -254 -216 -52 58 -145 21 -146 -58
0 -28 11 -44 64 -99 105 -108 84 -119 416 213 247 247 280 284 280 311 0 50
-33 84 -83 84 -40 0 -45 -4 -277 -235z"/>
<path d="M2589 3811 c-31 -31 -36 -55 -18 -94 18 -40 49 -47 209 -47 142 0
150 1 176 24 39 33 39 89 0 122 -26 23 -33 24 -182 24 l-156 0 -29 -29z"/>
<path d="M2589 3471 c-16 -16 -29 -39 -29 -51 0 -29 26 -76 45 -84 9 -3 297
-6 639 -6 606 0 624 1 648 20 14 11 28 31 30 44 7 36 -17 85 -47 96 -16 6
-259 10 -641 10 l-616 0 -29 -29z"/>
<path d="M1345 2876 c-55 -25 -108 -79 -134 -135 -24 -54 -24 -648 0 -702 26
-56 79 -110 134 -135 49 -23 56 -24 360 -23 226 0 320 3 346 13 56 20 103 61
135 118 27 50 29 61 32 185 l4 133 -30 30 c-32 32 -60 37 -95 18 -41 -22 -46
-39 -47 -155 0 -105 -1 -113 -26 -142 l-26 -31 -288 0 c-276 0 -288 1 -314 21
l-26 20 0 295 0 295 25 24 c24 25 25 25 224 25 196 0 200 0 227 24 39 33 39
89 0 122 -27 24 -30 24 -239 24 -201 0 -215 -1 -262 -24z"/>
<path d="M1949 2664 l-237 -237 -30 22 c-63 44 -142 10 -142 -62 0 -29 10 -44
69 -100 109 -106 84 -118 413 211 266 265 278 279 278 315 0 49 -36 87 -82 87
-29 0 -57 -25 -269 -236z"/>
<path d="M2610 2632 c-41 -20 -58 -59 -44 -99 16 -48 63 -63 199 -63 153 0
191 10 212 56 16 31 16 37 0 68 -21 46 -59 56 -212 56 -94 0 -127 -4 -155 -18z"/>
<path d="M2585 2275 c-32 -31 -32 -75 -1 -112 l24 -28 604 -3 c331 -2 618 0
636 3 47 9 72 37 72 83 0 27 -7 45 -23 60 l-23 22 -633 0 -632 0 -24 -25z"/>
<path d="M1399 1703 c-49 -8 -132 -66 -161 -113 -43 -70 -50 -134 -46 -434 3
-232 6 -277 21 -310 28 -63 61 -99 118 -131 l54 -30 298 -3 c355 -4 380 0 457
78 67 66 83 123 78 276 -3 108 -5 117 -27 135 -36 29 -94 25 -120 -7 -18 -23
-21 -41 -21 -130 0 -187 6 -184 -338 -184 -267 0 -314 6 -332 40 -6 11 -10
138 -10 308 l0 289 26 24 c25 24 30 24 222 27 120 1 206 7 219 14 33 17 48 61
33 98 -23 54 -48 60 -257 59 -103 -1 -200 -4 -214 -6z"/>
<path d="M2184 1695 c-16 -7 -130 -114 -253 -238 l-225 -226 -29 25 c-33 28
-56 30 -96 9 -32 -16 -41 -33 -41 -76 0 -23 13 -44 53 -86 60 -64 104 -87 139
-74 13 5 146 132 296 283 253 255 272 276 272 309 0 60 -60 98 -116 74z"/>
<path d="M2604 1438 c-24 -11 -44 -48 -44 -79 0 -11 13 -34 29 -50 l29 -29
156 0 c149 0 156 1 182 24 39 33 39 89 0 122 -26 23 -33 24 -179 23 -84 0
-162 -5 -173 -11z"/>
<path d="M2589 1081 c-31 -31 -36 -59 -17 -94 25 -48 8 -46 670 -47 l627 0 25
23 c38 34 39 85 1 122 l-24 25 -626 0 -627 0 -29 -29z"/>
</g>
</svg>
