<?xml version="1.0" standalone="no"?>
<!DOCTYPE svg PUBLIC "-//W3C//DTD SVG 20010904//EN"
 "http://www.w3.org/TR/2001/REC-SVG-20010904/DTD/svg10.dtd">
<svg version="1.0" xmlns="http://www.w3.org/2000/svg"
 width="512.000000pt" height="512.000000pt" viewBox="0 0 512.000000 512.000000"
 preserveAspectRatio="xMidYMid meet">

<g transform="translate(0.000000,512.000000) scale(0.100000,-0.100000)"
fill="#000000" stroke="none">
<path d="M2486 5105 c-77 -27 -93 -55 -291 -474 l-187 -397 -416 -63 c-357
-54 -423 -66 -460 -87 -85 -50 -125 -154 -96 -252 17 -60 22 -65 476 -527
l157 -160 -70 -425 c-77 -466 -79 -503 -35 -571 53 -79 155 -117 239 -90 19 7
198 101 396 210 l361 199 361 -199 c198 -109 377 -203 396 -210 84 -27 186 11
239 90 44 68 42 105 -35 571 l-70 425 157 160 c454 462 459 467 476 527 29 98
-11 202 -96 252 -37 21 -103 34 -460 88 l-416 63 -187 397 c-156 330 -194 404
-226 432 -59 54 -136 69 -213 41z m102 -167 c5 -7 96 -195 201 -418 105 -222
200 -413 211 -424 16 -16 93 -31 458 -86 242 -37 445 -70 451 -74 6 -4 11 -21
11 -38 0 -26 -41 -72 -312 -350 -172 -175 -318 -331 -324 -346 -9 -22 2 -108
63 -481 78 -473 80 -501 36 -501 -10 0 -193 97 -408 215 -214 118 -401 215
-414 215 -13 0 -197 -95 -408 -212 -212 -116 -396 -213 -409 -216 -52 -10 -51
11 29 499 61 372 72 459 63 481 -6 15 -152 171 -325 348 -318 325 -337 348
-303 382 8 8 374 68 766 124 89 13 125 23 143 38 13 12 106 197 214 426 105
223 195 411 201 418 6 6 18 12 28 12 10 0 22 -6 28 -12z"/>
<path d="M775 2281 c-17 -10 -38 -29 -46 -42 -11 -18 -191 -396 -194 -406 0
-1 -95 -16 -210 -33 -116 -18 -225 -39 -242 -47 -38 -18 -72 -67 -80 -117 -11
-69 11 -102 178 -271 l158 -161 -34 -204 c-19 -113 -35 -223 -35 -245 0 -87
65 -155 148 -155 39 0 74 16 238 105 106 58 195 105 198 105 4 0 93 -47 198
-105 197 -108 231 -119 290 -96 36 14 77 60 90 102 9 33 6 71 -26 264 l-38
225 154 161 c175 183 197 219 179 289 -13 48 -41 84 -81 105 -14 7 -119 27
-235 45 -115 18 -211 33 -212 34 -1 1 -43 89 -93 195 -50 105 -97 203 -106
216 -34 53 -141 72 -199 36z m222 -476 c29 -61 61 -115 71 -121 10 -7 116 -27
235 -45 l216 -32 -165 -173 c-90 -95 -164 -180 -164 -189 0 -9 16 -113 36
-231 20 -119 34 -217 31 -220 -2 -3 -87 41 -188 97 -117 65 -195 102 -214 102
-20 1 -94 -35 -214 -101 -101 -56 -187 -102 -191 -102 -4 0 8 89 26 197 51
301 63 257 -128 450 -89 89 -160 164 -157 166 2 3 98 19 214 36 118 18 220 39
233 48 14 8 43 54 67 106 23 51 66 142 95 202 l52 110 47 -95 c25 -52 70 -145
98 -205z"/>
<path d="M4193 2284 c-42 -21 -47 -29 -153 -255 -50 -106 -92 -194 -93 -195
-1 -1 -94 -16 -207 -33 -113 -17 -217 -36 -233 -43 -37 -14 -74 -60 -88 -109
-20 -66 5 -107 179 -288 l153 -161 -37 -226 c-31 -191 -35 -231 -25 -263 12
-42 53 -88 89 -102 59 -23 93 -12 290 96 106 58 195 105 199 105 4 0 93 -47
198 -105 164 -89 199 -105 237 -105 82 0 148 70 148 155 0 22 -16 132 -35 245
l-34 204 158 161 c167 169 189 202 178 271 -8 50 -42 99 -80 117 -17 9 -124
30 -237 47 -113 17 -208 34 -212 38 -4 4 -47 91 -96 192 -48 102 -94 195 -101
208 -31 57 -129 80 -198 46z m174 -388 c57 -121 98 -196 114 -207 16 -13 89
-28 234 -50 116 -17 212 -33 214 -35 3 -3 -68 -78 -157 -167 -191 -193 -179
-149 -128 -450 18 -108 30 -197 28 -197 -3 0 -89 46 -191 102 -124 68 -196
102 -216 101 -19 0 -100 -39 -214 -102 -101 -56 -186 -100 -188 -97 -3 3 11
101 31 220 20 118 36 222 36 231 0 9 -74 94 -164 189 l-165 173 216 32 c119
18 225 38 235 45 18 11 32 38 155 298 31 65 60 115 64 111 4 -4 48 -93 96
-197z"/>
<path d="M2515 1699 c-52 -15 -81 -57 -180 -264 l-95 -200 -212 -33 c-133 -20
-224 -39 -243 -50 -65 -39 -93 -124 -64 -199 6 -15 80 -98 165 -183 104 -106
154 -163 154 -178 0 -12 -16 -116 -35 -231 -36 -223 -36 -252 5 -304 25 -32
79 -57 122 -57 24 0 89 30 226 105 105 58 197 105 203 105 6 0 93 -45 192 -99
100 -55 194 -103 210 -107 44 -10 94 4 131 39 58 55 60 81 21 318 -19 115 -35
219 -35 231 0 15 50 72 154 178 85 85 159 168 165 183 18 48 13 111 -12 147
-38 57 -69 68 -296 103 l-212 32 -94 200 c-53 109 -107 212 -122 227 -15 16
-43 33 -62 38 -41 11 -45 11 -86 -1z m145 -400 c82 -174 99 -203 125 -215 16
-7 119 -27 229 -43 109 -16 201 -32 204 -36 3 -3 -67 -79 -156 -168 -137 -139
-162 -168 -162 -194 0 -16 16 -124 34 -239 19 -114 34 -210 32 -211 -2 -2 -89
44 -193 102 -105 58 -200 105 -212 105 -12 0 -108 -47 -213 -105 -105 -58
-192 -104 -194 -103 -1 2 13 98 31 213 19 116 35 223 35 239 0 25 -26 56 -162
193 -89 89 -159 165 -157 168 3 2 95 18 205 35 109 17 213 37 229 44 26 12 43
41 124 215 52 110 97 201 101 201 3 0 48 -91 100 -201z"/>
</g>
</svg>
