<?xml version="1.0" standalone="no"?>
<!DOCTYPE svg PUBLIC "-//W3C//DTD SVG 20010904//EN"
 "http://www.w3.org/TR/2001/REC-SVG-20010904/DTD/svg10.dtd">
<svg version="1.0" xmlns="http://www.w3.org/2000/svg"
 width="512.000000pt" height="512.000000pt" viewBox="0 0 512.000000 512.000000"
 preserveAspectRatio="xMidYMid meet">

<g transform="translate(0.000000,512.000000) scale(0.100000,-0.100000)"
fill="#000000" stroke="none">
<path d="M2139 5097 c-46 -25 -89 -84 -89 -124 0 -23 -1 -23 -144 -23 -80 0
-157 -5 -173 -11 -45 -17 -93 -70 -105 -116 l-10 -43 -399 0 c-257 0 -417 -4
-451 -11 -128 -27 -242 -117 -300 -236 l-33 -68 -3 -2055 c-2 -2285 -8 -2101
67 -2218 47 -71 135 -141 214 -169 50 -17 133 -18 1847 -18 1714 0 1797 1
1847 18 117 41 220 146 263 270 20 56 20 83 20 2091 0 2000 0 2035 -20 2098
-45 145 -166 255 -318 287 -34 7 -194 11 -451 11 l-399 0 -10 43 c-12 46 -60
99 -105 116 -16 6 -93 11 -173 11 -143 0 -144 0 -144 23 0 40 -43 99 -89 124
-44 23 -46 23 -421 23 -375 0 -377 0 -421 -23z m765 -182 c8 -43 59 -103 103
-121 22 -10 78 -14 178 -14 l145 0 0 -85 0 -85 -770 0 -770 0 0 85 0 85 145 0
c100 0 156 4 178 14 44 18 95 78 103 121 l6 35 338 0 338 0 6 -35z m-1284
-322 c0 -39 43 -104 84 -128 l43 -25 813 0 813 0 43 25 c41 24 84 89 84 128 0
16 28 17 340 17 l340 0 0 -2021 0 -2021 -29 -29 -29 -29 -1562 0 -1562 0 -29
29 -29 29 0 2021 0 2021 340 0 c312 0 340 -1 340 -17z m-848 -2035 c3 -1933 4
-2035 21 -2069 24 -47 71 -95 121 -122 l41 -22 1605 0 1605 0 41 22 c50 27 97
75 121 122 17 34 18 136 21 2069 1 1117 5 2032 8 2032 39 0 135 -99 152 -158
18 -60 16 -4043 -2 -4093 -20 -56 -61 -103 -118 -135 l-53 -29 -1775 0 -1775
0 -53 29 c-57 32 -98 79 -118 135 -18 50 -20 4033 -2 4092 17 59 112 159 150
159 5 0 9 -915 10 -2032z"/>
<path d="M2404 4256 c-368 -60 -676 -312 -803 -656 -48 -131 -55 -179 -56
-355 0 -205 17 -280 100 -450 307 -631 1141 -771 1636 -276 90 90 144 169 204
294 73 153 90 233 90 432 0 205 -17 281 -100 450 -135 277 -372 467 -675 544
-109 27 -287 35 -396 17z m66 -294 l0 -129 -55 -12 c-191 -43 -359 -204 -422
-403 l-28 -88 -128 0 -127 0 6 43 c10 61 52 194 82 252 107 213 318 383 552
444 129 34 120 42 120 -107z m296 108 c145 -37 269 -107 383 -214 110 -105
176 -211 227 -366 26 -78 28 -98 28 -240 1 -120 -3 -170 -17 -220 -27 -96 -68
-182 -83 -176 -8 3 -55 33 -106 67 -51 34 -94 62 -95 63 0 1 10 35 24 76 30
88 36 229 14 320 -51 211 -234 396 -436 441 l-55 12 0 129 c0 148 -9 140 116
108z m-101 -415 c210 -55 351 -266 315 -474 -28 -164 -134 -291 -286 -341 -98
-33 -224 -26 -315 18 -169 81 -270 272 -239 451 44 250 284 408 525 346z
m-685 -548 c12 -62 58 -163 96 -212 l26 -35 -33 -37 c-18 -21 -56 -64 -85 -96
l-52 -58 -41 48 c-75 88 -151 262 -175 406 l-7 37 130 0 130 0 11 -53z m1137
-335 l102 -68 -29 -36 c-42 -50 -142 -129 -221 -172 -274 -151 -614 -138 -871
31 l-38 26 40 46 c22 25 59 68 83 95 l43 49 74 -36 c98 -47 177 -61 298 -54
146 8 281 65 367 155 17 17 35 31 40 32 6 0 56 -31 112 -68z"/>
<path d="M1226 2040 c-37 -12 -85 -56 -102 -97 -9 -22 -14 -73 -14 -153 0
-137 14 -180 72 -222 30 -21 45 -23 169 -26 158 -4 190 5 235 64 28 36 29 43
32 157 2 66 1 135 -3 154 -8 46 -68 110 -113 123 -44 12 -235 12 -276 0z m224
-245 l0 -85 -85 0 -85 0 0 85 0 85 85 0 85 0 0 -85z"/>
<path d="M1840 2037 c-53 -27 -62 -96 -18 -137 21 -19 34 -20 309 -20 275 0
287 1 313 21 19 15 26 30 26 54 0 92 -12 95 -337 95 -196 0 -275 -4 -293 -13z"/>
<path d="M2742 2029 c-77 -38 -87 -63 -90 -229 -3 -138 -2 -147 20 -180 13
-19 39 -45 57 -57 31 -21 45 -23 169 -23 120 0 138 2 174 22 66 37 82 76 86
203 8 230 -41 284 -258 285 -97 0 -122 -3 -158 -21z m246 -236 l3 -83 -86 0
-85 0 0 85 0 86 83 -3 82 -3 3 -82z"/>
<path d="M3361 2024 c-40 -33 -43 -83 -6 -119 l24 -25 291 0 291 0 24 25 c35
34 33 78 -4 116 l-29 29 -280 0 -280 0 -31 -26z"/>
<path d="M1840 1697 c-52 -26 -62 -95 -20 -137 18 -18 34 -20 185 -20 151 0
167 2 185 20 42 42 32 111 -20 137 -34 17 -296 17 -330 0z"/>
<path d="M3384 1700 c-55 -22 -70 -95 -29 -135 24 -25 27 -25 188 -25 158 0
164 1 185 23 23 25 29 75 12 107 -5 10 -24 23 -41 29 -37 13 -284 14 -315 1z"/>
<path d="M1245 1361 c-47 -12 -72 -29 -102 -68 -27 -35 -28 -42 -31 -162 -2
-73 1 -141 7 -162 14 -45 67 -94 118 -108 49 -14 207 -14 255 -1 48 14 97 55
114 97 17 39 19 258 3 300 -13 36 -46 70 -84 91 -34 17 -228 27 -280 13z m205
-256 l0 -85 -85 0 -85 0 0 85 0 85 85 0 85 0 0 -85z"/>
<path d="M1844 1356 c-73 -32 -64 -133 13 -156 25 -8 126 -10 300 -8 261 3
261 3 287 27 36 34 36 88 0 122 l-26 24 -271 2 c-213 2 -279 0 -303 -11z"/>
<path d="M2781 1361 c-43 -11 -80 -39 -108 -81 -21 -30 -23 -44 -23 -167 0
-157 10 -190 73 -231 37 -24 51 -27 151 -30 133 -5 188 8 232 52 44 44 57 99
52 232 -3 100 -6 114 -30 151 -39 59 -83 76 -208 79 -58 2 -120 -1 -139 -5z
m207 -253 l-3 -83 -82 -3 -83 -3 0 86 0 85 85 0 86 0 -3 -82z"/>
<path d="M3393 1363 c-31 -6 -63 -49 -63 -84 0 -15 11 -41 24 -56 l24 -28 292
0 292 0 24 28 c31 36 31 78 0 114 l-24 28 -274 1 c-150 1 -283 0 -295 -3z"/>
<path d="M1832 1013 c-23 -9 -44 -63 -37 -94 13 -57 51 -69 210 -69 153 0 181
8 203 54 16 32 9 69 -18 96 -18 18 -33 20 -182 19 -90 0 -169 -3 -176 -6z"/>
<path d="M3355 995 c-32 -31 -32 -75 -1 -112 24 -28 26 -28 157 -31 151 -4
192 1 220 29 28 28 26 89 -4 117 -22 21 -33 22 -186 22 -159 0 -162 -1 -186
-25z"/>
</g>
</svg>
