<?xml version="1.0" standalone="no"?>
<!DOCTYPE svg PUBLIC "-//W3C//DTD SVG 20010904//EN"
 "http://www.w3.org/TR/2001/REC-SVG-20010904/DTD/svg10.dtd">
<svg version="1.0" xmlns="http://www.w3.org/2000/svg"
 width="512.000000pt" height="512.000000pt" viewBox="0 0 512.000000 512.000000"
 preserveAspectRatio="xMidYMid meet">

<g transform="translate(0.000000,512.000000) scale(0.100000,-0.100000)"
fill="#000000" stroke="none">
<path d="M859 5097 c-27 -15 -52 -38 -66 -63 l-23 -39 0 -2435 0 -2435 23 -39
c14 -25 39 -48 66 -63 l45 -23 1340 2 1341 3 40 22 c22 12 189 171 371 355
278 280 332 340 342 374 9 31 12 564 12 2140 l0 2099 -23 39 c-14 25 -39 48
-66 63 l-44 23 -1657 0 -1657 0 -44 -23z m3321 -2197 l0 -2050 -255 0 c-240 0
-258 -1 -301 -21 -25 -12 -56 -36 -69 -53 -52 -68 -55 -87 -55 -356 l0 -250
-1280 0 -1280 0 0 2390 0 2390 1620 0 1620 0 0 -2050z m-130 -2223 c0 -1 -85
-88 -190 -192 l-190 -190 0 177 c0 147 3 179 16 192 13 13 45 16 190 16 96 0
174 -1 174 -3z"/>
<path d="M2310 4765 c-59 -18 -123 -73 -150 -130 -13 -27 -24 -73 -27 -119
l-6 -74 -116 -4 c-129 -5 -171 -19 -231 -80 -71 -71 -70 -58 -70 -601 0 -527
-1 -518 54 -590 14 -19 50 -47 78 -63 l53 -29 665 0 665 0 53 29 c28 16 64 44
78 63 56 74 55 62 52 601 -3 549 0 523 -69 591 -59 60 -102 74 -230 79 l-116
4 -6 74 c-7 91 -34 151 -90 199 -66 56 -112 65 -341 64 -142 0 -214 -4 -246
-14z m455 -165 c31 -12 55 -63 55 -120 l0 -40 -260 0 -260 0 0 40 c0 54 24
108 52 120 31 12 380 12 413 0z m449 -359 c25 -24 26 -29 26 -141 0 -104 -2
-120 -21 -144 l-20 -26 -639 0 -639 0 -20 26 c-19 24 -21 40 -21 144 0 108 2
118 23 137 12 11 29 23 37 26 8 3 293 5 632 4 l616 -2 26 -24z m-1116 -490
l122 -1 0 -67 c0 -115 69 -220 166 -254 58 -21 307 -19 355 2 99 45 159 139
159 252 l0 67 123 1 c67 0 143 4 170 8 l47 8 0 -238 0 -237 -31 -26 -31 -26
-618 0 -618 0 -31 26 -31 26 0 237 0 238 48 -8 c26 -4 102 -8 170 -8z m632
-55 c0 -44 -5 -61 -24 -83 -24 -28 -25 -28 -146 -28 -121 0 -122 0 -146 28
-19 22 -24 39 -24 83 l0 54 170 0 170 0 0 -54z"/>
<path d="M1678 2808 c-18 -6 -75 -69 -159 -176 -173 -218 -153 -198 -183 -179
-63 42 -136 6 -136 -67 0 -33 8 -46 64 -102 54 -54 69 -64 99 -64 19 0 44 8
55 18 19 16 320 392 355 442 23 34 21 74 -5 104 -28 30 -55 37 -90 24z"/>
<path d="M1994 2706 c-21 -18 -28 -32 -28 -61 0 -29 7 -43 28 -61 l27 -24 925
0 925 0 24 25 c38 37 37 88 -1 123 l-25 22 -924 0 -924 0 -27 -24z"/>
<path d="M1994 2366 c-21 -18 -28 -32 -28 -61 0 -29 7 -43 28 -61 l27 -24 585
0 585 0 24 25 c25 24 32 65 19 100 -17 44 -31 45 -638 45 l-575 0 -27 -24z"/>
<path d="M1677 2043 c-10 -3 -81 -84 -159 -181 -77 -97 -144 -180 -147 -184
-4 -5 -25 1 -46 12 -43 22 -68 19 -102 -13 -16 -14 -23 -32 -23 -57 0 -32 8
-45 69 -103 73 -71 98 -80 140 -51 13 9 104 117 202 240 153 192 179 229 179
258 0 26 -8 41 -31 60 -30 25 -45 29 -82 19z"/>
<path d="M1985 1928 c-31 -36 -29 -79 6 -113 19 -20 34 -20 937 -23 690 -2
924 1 946 10 55 23 66 101 18 138 -24 20 -43 20 -952 20 l-928 0 -27 -32z"/>
<path d="M1994 1596 c-21 -18 -28 -32 -28 -61 0 -29 7 -43 28 -61 l27 -24 575
0 c607 0 621 1 638 45 13 35 6 76 -19 100 l-24 25 -585 0 -585 0 -27 -24z"/>
<path d="M1667 1269 c-9 -6 -81 -90 -159 -187 -78 -97 -143 -179 -145 -181 -1
-2 -11 3 -20 12 -41 36 -120 25 -137 -18 -19 -50 -7 -80 57 -142 68 -67 92
-78 130 -64 16 6 99 101 211 242 188 233 199 253 180 304 -7 19 -55 45 -81 45
-10 0 -26 -5 -36 -11z"/>
<path d="M1990 1170 c-45 -45 -29 -118 31 -139 45 -16 1803 -16 1848 0 37 13
51 35 51 82 0 22 -8 41 -23 55 l-23 22 -932 0 c-915 0 -932 0 -952 -20z"/>
<path d="M1992 830 c-29 -27 -37 -63 -20 -96 25 -54 18 -54 635 -54 l571 0 31
26 c40 33 43 83 6 119 l-24 25 -589 0 c-577 0 -589 0 -610 -20z"/>
</g>
</svg>
