<?xml version="1.0" standalone="no"?>
<!DOCTYPE svg PUBLIC "-//W3C//DTD SVG 20010904//EN"
 "http://www.w3.org/TR/2001/REC-SVG-20010904/DTD/svg10.dtd">
<svg version="1.0" xmlns="http://www.w3.org/2000/svg"
 width="512.000000pt" height="512.000000pt" viewBox="0 0 512.000000 512.000000"
 preserveAspectRatio="xMidYMid meet">

<g transform="translate(0.000000,512.000000) scale(0.100000,-0.100000)"
fill="#000000" stroke="none">
<path d="M320 5106 c-147 -41 -267 -162 -306 -310 -21 -80 -20 -2427 1 -2509
30 -114 86 -192 188 -258 74 -48 165 -69 296 -69 l101 0 0 -202 c0 -183 2
-208 21 -248 26 -58 53 -87 111 -116 64 -33 158 -33 216 -1 23 12 190 145 372
295 l329 272 132 0 131 0 -5 -28 c-35 -175 -34 -465 3 -635 139 -650 632
-1138 1283 -1269 150 -31 440 -33 592 -4 666 124 1172 627 1307 1298 32 162
32 434 0 596 -131 652 -618 1150 -1259 1288 l-83 17 -2 791 -3 791 -31 65
c-39 81 -96 145 -165 187 -112 67 -17 63 -1679 62 -1172 -1 -1515 -4 -1550
-13z m3086 -171 c65 -19 116 -63 148 -127 l26 -52 0 -757 0 -756 -147 -6
c-280 -11 -518 -80 -759 -223 -301 -176 -544 -458 -673 -779 l-40 -100 -188
-5 c-145 -4 -193 -8 -209 -20 -11 -8 -171 -140 -356 -293 -360 -297 -371 -304
-418 -257 -19 19 -20 33 -20 260 0 250 -4 279 -44 298 -11 6 -97 12 -191 14
-154 3 -174 5 -217 26 -27 13 -64 42 -83 64 -69 82 -66 3 -63 1339 3 1152 4
1206 22 1239 36 68 97 120 166 141 14 4 694 8 1511 8 1280 1 1492 -1 1535 -14z
m374 -1890 c292 -64 544 -200 744 -401 492 -493 564 -1249 175 -1835 -83 -125
-263 -305 -388 -388 -349 -232 -764 -305 -1162 -206 -407 102 -750 374 -941
748 -53 102 -107 259 -133 382 -23 109 -31 329 -15 451 81 646 571 1154 1215
1259 117 19 399 13 505 -10z"/>
<path d="M490 4263 c-58 -21 -77 -88 -39 -137 l20 -26 1405 0 c1385 0 1404 0
1424 20 42 42 32 111 -20 137 -20 10 -310 13 -1400 12 -756 0 -1382 -3 -1390
-6z"/>
<path d="M451 3554 c-29 -37 -27 -85 5 -115 l26 -24 1211 -3 c899 -2 1219 1
1240 9 34 14 61 62 51 92 -3 12 -16 32 -27 45 l-20 22 -1233 0 -1233 0 -20
-26z"/>
<path d="M490 2983 c-58 -22 -77 -88 -39 -137 l20 -26 720 0 720 0 24 25 c34
33 34 83 -1 116 l-26 24 -701 2 c-386 1 -709 -1 -717 -4z"/>
<path d="M3300 2885 c-285 -49 -519 -170 -716 -370 -171 -174 -287 -394 -341
-645 -25 -117 -25 -381 0 -497 121 -565 570 -968 1140 -1025 518 -51 1029 235
1261 705 95 193 131 352 130 577 -2 269 -62 468 -211 700 -68 104 -239 277
-343 347 -272 182 -617 260 -920 208z m376 -170 c620 -100 1036 -704 908
-1317 -89 -430 -432 -773 -862 -862 -481 -101 -981 138 -1206 574 -282 547
-70 1215 475 1494 219 112 449 149 685 111z"/>
<path d="M3444 2537 c-23 -20 -28 -34 -32 -86 -6 -78 11 -119 54 -137 37 -15
58 -11 92 19 19 18 22 30 22 99 0 70 -3 82 -25 103 -31 32 -75 32 -111 2z"/>
<path d="M2839 2281 c-46 -46 -34 -98 36 -159 62 -55 120 -52 154 9 18 33 9
69 -31 114 -61 70 -113 82 -159 36z"/>
<path d="M4065 2301 c-11 -5 -39 -29 -63 -55 -51 -55 -57 -102 -17 -141 41
-41 78 -34 143 29 48 47 56 59 56 91 0 62 -59 100 -119 76z"/>
<path d="M3439 2104 c-24 -25 -24 -28 -27 -256 -2 -164 0 -240 9 -260 9 -23
35 -41 120 -84 60 -30 120 -54 134 -54 37 0 75 42 75 83 0 46 -16 64 -96 106
l-69 36 -3 207 -2 207 -27 20 c-36 29 -84 27 -114 -5z"/>
<path d="M2614 1700 c-55 -22 -70 -95 -29 -135 21 -22 33 -25 103 -25 69 0 81
3 99 23 11 12 23 30 26 39 10 28 -13 78 -44 93 -30 16 -121 19 -155 5z"/>
<path d="M4230 1697 c-54 -27 -63 -94 -20 -137 17 -17 34 -20 98 -20 83 0 112
14 127 60 10 31 -13 79 -46 95 -34 18 -125 19 -159 2z"/>
<path d="M2863 1107 c-64 -65 -70 -101 -24 -148 44 -43 72 -38 137 23 61 57
72 84 54 129 -15 35 -37 49 -81 49 -25 0 -43 -11 -86 -53z"/>
<path d="M3985 1135 c-37 -36 -33 -82 10 -132 19 -22 50 -48 69 -57 31 -15 39
-15 69 -2 73 30 66 111 -16 181 -50 43 -96 47 -132 10z"/>
<path d="M3460 927 c-34 -17 -50 -53 -50 -115 0 -65 19 -105 59 -121 35 -15
64 -8 91 22 16 17 20 35 20 93 0 88 -4 101 -41 119 -34 18 -47 18 -79 2z"/>
</g>
</svg>
